<svg xmlns="http://www.w3.org/2000/svg" viewBox="0 0 1200 800"><defs><linearGradient id="sky" x1="0" y1="0" x2="0" y2="1">
    <stop offset="0" stop-color="#cbd9ef"/><stop offset="1" stop-color="#eef3fb"/></linearGradient>
    <linearGradient id="steel" x1="0" y1="0" x2="0" y2="1">
    <stop offset="0" stop-color="#94a3b8"/><stop offset="1" stop-color="#64748b"/></linearGradient></defs>
    <rect width="1200" height="800" fill="url(#sky)"/>
<rect x="150" y="150" width="900" height="500" rx="10" fill="#7c8a9c" stroke="#475569" stroke-width="8"/>
<circle cx="230" cy="230" r="11" fill="#cbd5e1" stroke="#475569" stroke-width="3"/><circle cx="320" cy="230" r="11" fill="#cbd5e1" stroke="#475569" stroke-width="3"/><circle cx="410" cy="230" r="11" fill="#cbd5e1" stroke="#475569" stroke-width="3"/><circle cx="500" cy="230" r="11" fill="#cbd5e1" stroke="#475569" stroke-width="3"/><circle cx="590" cy="230" r="11" fill="#cbd5e1" stroke="#475569" stroke-width="3"/><circle cx="680" cy="230" r="11" fill="#cbd5e1" stroke="#475569" stroke-width="3"/><circle cx="770" cy="230" r="11" fill="#cbd5e1" stroke="#475569" stroke-width="3"/><circle cx="860" cy="230" r="11" fill="#cbd5e1" stroke="#475569" stroke-width="3"/><circle cx="950" cy="230" r="11" fill="#cbd5e1" stroke="#475569" stroke-width="3"/><circle cx="230" cy="320" r="11" fill="#cbd5e1" stroke="#475569" stroke-width="3"/><circle cx="320" cy="320" r="11" fill="#cbd5e1" stroke="#475569" stroke-width="3"/><circle cx="410" cy="320" r="11" fill="#cbd5e1" stroke="#475569" stroke-width="3"/><circle cx="500" cy="320" r="11" fill="#cbd5e1" stroke="#475569" stroke-width="3"/><circle cx="590" cy="320" r="11" fill="#cbd5e1" stroke="#475569" stroke-width="3"/><circle cx="680" cy="320" r="11" fill="#cbd5e1" stroke="#475569" stroke-width="3"/><circle cx="770" cy="320" r="11" fill="#cbd5e1" stroke="#475569" stroke-width="3"/><circle cx="860" cy="320" r="11" fill="#cbd5e1" stroke="#475569" stroke-width="3"/><circle cx="950" cy="320" r="11" fill="#cbd5e1" stroke="#475569" stroke-width="3"/><circle cx="230" cy="410" r="11" fill="#cbd5e1" stroke="#475569" stroke-width="3"/><circle cx="320" cy="410" r="11" fill="#cbd5e1" stroke="#475569" stroke-width="3"/><circle cx="410" cy="410" r="11" fill="#cbd5e1" stroke="#475569" stroke-width="3"/><circle cx="500" cy="410" r="11" fill="#cbd5e1" stroke="#475569" stroke-width="3"/><circle cx="590" cy="410" r="11" fill="#cbd5e1" stroke="#475569" stroke-width="3"/><circle cx="680" cy="410" r="11" fill="#cbd5e1" stroke="#475569" stroke-width="3"/><circle cx="770" cy="410" r="11" fill="#cbd5e1" stroke="#475569" stroke-width="3"/><circle cx="860" cy="410" r="11" fill="#cbd5e1" stroke="#475569" stroke-width="3"/><circle cx="950" cy="410" r="11" fill="#cbd5e1" stroke="#475569" stroke-width="3"/><circle cx="230" cy="500" r="11" fill="#cbd5e1" stroke="#475569" stroke-width="3"/><circle cx="320" cy="500" r="11" fill="#cbd5e1" stroke="#475569" stroke-width="3"/><circle cx="410" cy="500" r="11" fill="#cbd5e1" stroke="#475569" stroke-width="3"/><circle cx="500" cy="500" r="11" fill="#cbd5e1" stroke="#475569" stroke-width="3"/><circle cx="590" cy="500" r="11" fill="#cbd5e1" stroke="#475569" stroke-width="3"/><circle cx="680" cy="500" r="11" fill="#cbd5e1" stroke="#475569" stroke-width="3"/><circle cx="770" cy="500" r="11" fill="#cbd5e1" stroke="#475569" stroke-width="3"/><circle cx="860" cy="500" r="11" fill="#cbd5e1" stroke="#475569" stroke-width="3"/><circle cx="950" cy="500" r="11" fill="#cbd5e1" stroke="#475569" stroke-width="3"/><circle cx="230" cy="590" r="11" fill="#cbd5e1" stroke="#475569" stroke-width="3"/><circle cx="320" cy="590" r="11" fill="#cbd5e1" stroke="#475569" stroke-width="3"/><circle cx="410" cy="590" r="11" fill="#cbd5e1" stroke="#475569" stroke-width="3"/><circle cx="500" cy="590" r="11" fill="#cbd5e1" stroke="#475569" stroke-width="3"/><circle cx="590" cy="590" r="11" fill="#cbd5e1" stroke="#475569" stroke-width="3"/><circle cx="680" cy="590" r="11" fill="#cbd5e1" stroke="#475569" stroke-width="3"/><circle cx="770" cy="590" r="11" fill="#cbd5e1" stroke="#475569" stroke-width="3"/><circle cx="860" cy="590" r="11" fill="#cbd5e1" stroke="#475569" stroke-width="3"/><circle cx="950" cy="590" r="11" fill="#cbd5e1" stroke="#475569" stroke-width="3"/>
<text x="600" y="715" font-family="sans-serif" font-size="40" fill="#475569" text-anchor="middle" font-weight="bold">ずれ止めスタッド配置</text></svg>