<svg xmlns="http://www.w3.org/2000/svg" viewBox="0 0 1200 800"><defs><linearGradient id="sky" x1="0" y1="0" x2="0" y2="1">
    <stop offset="0" stop-color="#cbd9ef"/><stop offset="1" stop-color="#eef3fb"/></linearGradient>
    <linearGradient id="steel" x1="0" y1="0" x2="0" y2="1">
    <stop offset="0" stop-color="#94a3b8"/><stop offset="1" stop-color="#64748b"/></linearGradient></defs>
    <rect width="1200" height="800" fill="url(#sky)"/>
<rect x="0" y="0" width="1200" height="120" fill="url(#steel)"/>
<path d="M 250 120 q 0 260 350 260 q 350 0 350 -260 z" fill="#7c8a9c" stroke="#475569" stroke-width="6"/>
<g transform="translate(360,150)"><rect x="-7" y="0" width="14" height="40" rx="3" fill="#cbd5e1" stroke="#64748b" stroke-width="2"/><ellipse cx="0" cy="44" rx="16" ry="6" fill="#fbbf24"/></g><g transform="translate(430,150)"><rect x="-7" y="0" width="14" height="40" rx="3" fill="#cbd5e1" stroke="#64748b" stroke-width="2"/><ellipse cx="0" cy="44" rx="16" ry="6" fill="#fbbf24"/></g><g transform="translate(500,150)"><rect x="-7" y="0" width="14" height="40" rx="3" fill="#cbd5e1" stroke="#64748b" stroke-width="2"/><ellipse cx="0" cy="44" rx="16" ry="6" fill="#fbbf24"/></g><g transform="translate(570,150)"><rect x="-7" y="0" width="14" height="40" rx="3" fill="#cbd5e1" stroke="#64748b" stroke-width="2"/><ellipse cx="0" cy="44" rx="16" ry="6" fill="#fbbf24"/></g><g transform="translate(640,150)"><rect x="-7" y="0" width="14" height="40" rx="3" fill="#cbd5e1" stroke="#64748b" stroke-width="2"/><ellipse cx="0" cy="44" rx="16" ry="6" fill="#fbbf24"/></g><g transform="translate(710,150)"><rect x="-7" y="0" width="14" height="40" rx="3" fill="#cbd5e1" stroke="#64748b" stroke-width="2"/><ellipse cx="0" cy="44" rx="16" ry="6" fill="#fbbf24"/></g><g transform="translate(780,150)"><rect x="-7" y="0" width="14" height="40" rx="3" fill="#cbd5e1" stroke="#64748b" stroke-width="2"/><ellipse cx="0" cy="44" rx="16" ry="6" fill="#fbbf24"/></g><g transform="translate(850,150)"><rect x="-7" y="0" width="14" height="40" rx="3" fill="#cbd5e1" stroke="#64748b" stroke-width="2"/><ellipse cx="0" cy="44" rx="16" ry="6" fill="#fbbf24"/></g>
<text x="600" y="700" font-family="sans-serif" font-size="44" fill="#475569" text-anchor="middle" font-weight="bold">スタッドボルト溶接部</text></svg>