<svg xmlns="http://www.w3.org/2000/svg" viewBox="0 0 1200 800"><defs><linearGradient id="sky" x1="0" y1="0" x2="0" y2="1">
    <stop offset="0" stop-color="#bcd0ee"/><stop offset="1" stop-color="#eaf1fb"/></linearGradient>
    <linearGradient id="steel" x1="0" y1="0" x2="0" y2="1">
    <stop offset="0" stop-color="#94a3b8"/><stop offset="1" stop-color="#64748b"/></linearGradient></defs>
    <rect width="1200" height="800" fill="url(#sky)"/>
<path d="M0 560 Q300 480 600 560 T1200 560 V800 H0 Z" fill="#dbe4f0"/>
<rect x="120" y="430" width="70" height="370" fill="#94a3b8"/><rect x="1010" y="430" width="70" height="370" fill="#94a3b8"/>
<rect x="100" y="420" width="1000" height="40" fill="#64748b"/><rect x="100" y="460" width="1000" height="10" fill="#475569"/>
<rect x="520" y="420" width="180" height="40" fill="#cbd9ef"/>
<rect x="900" y="300" width="26" height="480" fill="#ea580c"/><rect x="912" y="300" width="6" height="480" fill="#fb923c"/>
<line x1="913" y1="305" x2="560" y2="120" stroke="#1e293b" stroke-width="6"/>
<line x1="560" y1="120" x2="540" y2="250" stroke="#475569" stroke-width="3"/><line x1="560" y1="120" x2="660" y2="250" stroke="#475569" stroke-width="3"/>
<g transform="translate(600,290)"><rect x="-110" y="-40" width="220" height="70" rx="6" fill="url(#steel)" stroke="#475569" stroke-width="4"/>
<rect x="-110" y="-12" width="220" height="10" fill="#475569"/>
<rect x="-95" y="-36" width="8" height="20" rx="2" fill="#cbd5e1"/><rect x="-57" y="-36" width="8" height="20" rx="2" fill="#cbd5e1"/><rect x="-19" y="-36" width="8" height="20" rx="2" fill="#cbd5e1"/><rect x="19" y="-36" width="8" height="20" rx="2" fill="#cbd5e1"/><rect x="57" y="-36" width="8" height="20" rx="2" fill="#cbd5e1"/><rect x="95" y="-36" width="8" height="20" rx="2" fill="#cbd5e1"/></g>
<g transform="translate(260,360) scale(0.85)">
      <ellipse cx="0" cy="120" rx="34" ry="8" fill="#000" opacity="0.12"/>
      <rect x="-16" y="58" width="13" height="58" rx="5" fill="#1e293b"/>
      <rect x="3" y="58" width="13" height="58" rx="5" fill="#1e293b"/>
      <rect x="-22" y="6" width="44" height="58" rx="10" fill="#f97316"/>
      <rect x="-22" y="28" width="44" height="9" fill="#e5e7eb" opacity="0.85"/>
      <rect x="-34" y="10" width="13" height="40" rx="6" fill="#f97316"/>
      <rect x="21" y="10" width="13" height="40" rx="6" fill="#f97316"/>
      <circle cx="0" cy="-12" r="16" fill="#f1c79b"/>
      <path d="M -19 -12 a 19 14 0 0 1 38 0 z" fill="#facc15"/>
      <rect x="-22" y="-13" width="44" height="6" rx="3" fill="#eab308"/></g><g transform="translate(820,360) scale(0.85)">
      <ellipse cx="0" cy="120" rx="34" ry="8" fill="#000" opacity="0.12"/>
      <rect x="-16" y="58" width="13" height="58" rx="5" fill="#1e293b"/>
      <rect x="3" y="58" width="13" height="58" rx="5" fill="#1e293b"/>
      <rect x="-22" y="6" width="44" height="58" rx="10" fill="#2563eb"/>
      <rect x="-22" y="28" width="44" height="9" fill="#e5e7eb" opacity="0.85"/>
      <rect x="-34" y="10" width="13" height="40" rx="6" fill="#2563eb"/>
      <rect x="21" y="10" width="13" height="40" rx="6" fill="#2563eb"/>
      <circle cx="0" cy="-12" r="16" fill="#f1c79b"/>
      <path d="M -19 -12 a 19 14 0 0 1 38 0 z" fill="#facc15"/>
      <rect x="-22" y="-13" width="44" height="6" rx="3" fill="#eab308"/></g>
<text x="600" y="740" font-family="sans-serif" font-size="42" fill="#334155" text-anchor="middle" font-weight="bold">プレキャスト床版 架設</text></svg>