<svg xmlns="http://www.w3.org/2000/svg" viewBox="0 0 1200 800"><defs><linearGradient id="sky" x1="0" y1="0" x2="0" y2="1">
    <stop offset="0" stop-color="#1e293b"/><stop offset="1" stop-color="#334155"/></linearGradient>
    <linearGradient id="steel" x1="0" y1="0" x2="0" y2="1">
    <stop offset="0" stop-color="#94a3b8"/><stop offset="1" stop-color="#64748b"/></linearGradient></defs>
    <rect width="1200" height="800" fill="url(#sky)"/>
<rect x="0" y="0" width="1200" height="160" fill="#334155"/>
<path d="M 80 160 q 0 120 60 120 q 60 0 60 -120 z" fill="#475569" stroke="#1e293b" stroke-width="4"/><path d="M 300 160 q 0 120 60 120 q 60 0 60 -120 z" fill="#475569" stroke="#1e293b" stroke-width="4"/><path d="M 520 160 q 0 120 60 120 q 60 0 60 -120 z" fill="#475569" stroke="#1e293b" stroke-width="4"/><path d="M 740 160 q 0 120 60 120 q 60 0 60 -120 z" fill="#475569" stroke="#1e293b" stroke-width="4"/><path d="M 960 160 q 0 120 60 120 q 60 0 60 -120 z" fill="#475569" stroke="#1e293b" stroke-width="4"/><path d="M 1180 160 q 0 120 60 120 q 60 0 60 -120 z" fill="#475569" stroke="#1e293b" stroke-width="4"/>
<rect x="0" y="600" width="1200" height="200" fill="#0f172a"/><g transform="translate(600,480) scale(1.4)">
      <ellipse cx="0" cy="120" rx="34" ry="8" fill="#000" opacity="0.12"/>
      <rect x="-16" y="58" width="13" height="58" rx="5" fill="#1e293b"/>
      <rect x="3" y="58" width="13" height="58" rx="5" fill="#1e293b"/>
      <rect x="-22" y="6" width="44" height="58" rx="10" fill="#f97316"/>
      <rect x="-22" y="28" width="44" height="9" fill="#e5e7eb" opacity="0.85"/>
      <rect x="-34" y="10" width="13" height="40" rx="6" fill="#f97316"/>
      <rect x="21" y="10" width="13" height="40" rx="6" fill="#f97316"/>
      <circle cx="0" cy="-12" r="16" fill="#f1c79b"/>
      <path d="M -19 -12 a 19 14 0 0 1 38 0 z" fill="#facc15"/>
      <rect x="-22" y="-13" width="44" height="6" rx="3" fill="#eab308"/></g>
<circle cx="600" cy="300" r="120" fill="#facc15" opacity="0.18"/><circle cx="600" cy="300" r="60" fill="#fde68a" opacity="0.4"/>
<text x="600" y="730" font-family="sans-serif" font-size="40" fill="#cbd5e1" text-anchor="middle" font-weight="bold">夜間 床版下面施工</text></svg>