<svg xmlns="http://www.w3.org/2000/svg" viewBox="0 0 1200 800"><defs><linearGradient id="sky" x1="0" y1="0" x2="0" y2="1">
    <stop offset="0" stop-color="#cbd9ef"/><stop offset="1" stop-color="#eef3fb"/></linearGradient>
    <linearGradient id="steel" x1="0" y1="0" x2="0" y2="1">
    <stop offset="0" stop-color="#94a3b8"/><stop offset="1" stop-color="#64748b"/></linearGradient></defs>
    <rect width="1200" height="800" fill="url(#sky)"/>
<rect x="200" y="180" width="800" height="440" fill="#5b80b3" stroke="#1e3a8a" stroke-width="10"/><rect x="200" y="180" width="800" height="60" fill="#4a72a8"/>
<g transform="translate(300,320)"><circle r="20" fill="#dbeafe" stroke="#1e3a8a" stroke-width="5"/><circle r="8" fill="#94a3b8"/></g><g transform="translate(440,320)"><circle r="20" fill="#dbeafe" stroke="#1e3a8a" stroke-width="5"/><circle r="8" fill="#94a3b8"/></g><g transform="translate(580,320)"><circle r="20" fill="#dbeafe" stroke="#1e3a8a" stroke-width="5"/><circle r="8" fill="#94a3b8"/></g><g transform="translate(720,320)"><circle r="20" fill="#dbeafe" stroke="#1e3a8a" stroke-width="5"/><circle r="8" fill="#94a3b8"/></g><g transform="translate(860,320)"><circle r="20" fill="#dbeafe" stroke="#1e3a8a" stroke-width="5"/><circle r="8" fill="#94a3b8"/></g><g transform="translate(300,440)"><circle r="20" fill="#dbeafe" stroke="#1e3a8a" stroke-width="5"/><circle r="8" fill="#94a3b8"/></g><g transform="translate(440,440)"><circle r="20" fill="#dbeafe" stroke="#1e3a8a" stroke-width="5"/><circle r="8" fill="#94a3b8"/></g><g transform="translate(580,440)"><circle r="20" fill="#dbeafe" stroke="#1e3a8a" stroke-width="5"/><circle r="8" fill="#94a3b8"/></g><g transform="translate(720,440)"><circle r="20" fill="#dbeafe" stroke="#1e3a8a" stroke-width="5"/><circle r="8" fill="#94a3b8"/></g><g transform="translate(860,440)"><circle r="20" fill="#dbeafe" stroke="#1e3a8a" stroke-width="5"/><circle r="8" fill="#94a3b8"/></g><g transform="translate(300,560)"><circle r="20" fill="#dbeafe" stroke="#1e3a8a" stroke-width="5"/><circle r="8" fill="#94a3b8"/></g><g transform="translate(440,560)"><circle r="20" fill="#dbeafe" stroke="#1e3a8a" stroke-width="5"/><circle r="8" fill="#94a3b8"/></g><g transform="translate(580,560)"><circle r="20" fill="#dbeafe" stroke="#1e3a8a" stroke-width="5"/><circle r="8" fill="#94a3b8"/></g><g transform="translate(720,560)"><circle r="20" fill="#dbeafe" stroke="#1e3a8a" stroke-width="5"/><circle r="8" fill="#94a3b8"/></g><g transform="translate(860,560)"><circle r="20" fill="#dbeafe" stroke="#1e3a8a" stroke-width="5"/><circle r="8" fill="#94a3b8"/></g>
<text x="600" y="700" font-family="sans-serif" font-size="40" fill="#1e3a8a" text-anchor="middle" font-weight="bold">高強度スタッドボルト</text></svg>