<svg xmlns="http://www.w3.org/2000/svg" viewBox="0 0 1200 800"><defs><linearGradient id="sky" x1="0" y1="0" x2="0" y2="1">
    <stop offset="0" stop-color="#c3d4ef"/><stop offset="1" stop-color="#edf2fb"/></linearGradient>
    <linearGradient id="steel" x1="0" y1="0" x2="0" y2="1">
    <stop offset="0" stop-color="#94a3b8"/><stop offset="1" stop-color="#64748b"/></linearGradient></defs>
    <rect width="1200" height="800" fill="url(#sky)"/>
<rect x="0" y="650" width="1200" height="150" fill="#cbd5e1"/><rect x="0" y="640" width="1200" height="14" fill="#94a3b8"/>
<rect x="470" y="120" width="260" height="540" fill="url(#steel)" stroke="#475569" stroke-width="6"/>
<rect x="470" y="120" width="40" height="540" fill="#94a3b8" opacity="0.6"/>
<rect x="455" y="200" width="290" height="90" fill="#5b80b3" opacity="0.92" stroke="#1e3a8a" stroke-width="4"/>
<rect x="455" y="420" width="290" height="90" fill="#5b80b3" opacity="0.92" stroke="#1e3a8a" stroke-width="4"/>
<circle cx="490" cy="245" r="9" fill="#dbeafe" stroke="#1e3a8a" stroke-width="3"/><circle cx="530" cy="245" r="9" fill="#dbeafe" stroke="#1e3a8a" stroke-width="3"/><circle cx="570" cy="245" r="9" fill="#dbeafe" stroke="#1e3a8a" stroke-width="3"/><circle cx="610" cy="245" r="9" fill="#dbeafe" stroke="#1e3a8a" stroke-width="3"/><circle cx="650" cy="245" r="9" fill="#dbeafe" stroke="#1e3a8a" stroke-width="3"/><circle cx="690" cy="245" r="9" fill="#dbeafe" stroke="#1e3a8a" stroke-width="3"/><circle cx="730" cy="245" r="9" fill="#dbeafe" stroke="#1e3a8a" stroke-width="3"/>
<circle cx="490" cy="465" r="9" fill="#dbeafe" stroke="#1e3a8a" stroke-width="3"/><circle cx="530" cy="465" r="9" fill="#dbeafe" stroke="#1e3a8a" stroke-width="3"/><circle cx="570" cy="465" r="9" fill="#dbeafe" stroke="#1e3a8a" stroke-width="3"/><circle cx="610" cy="465" r="9" fill="#dbeafe" stroke="#1e3a8a" stroke-width="3"/><circle cx="650" cy="465" r="9" fill="#dbeafe" stroke="#1e3a8a" stroke-width="3"/><circle cx="690" cy="465" r="9" fill="#dbeafe" stroke="#1e3a8a" stroke-width="3"/><circle cx="730" cy="465" r="9" fill="#dbeafe" stroke="#1e3a8a" stroke-width="3"/>
<rect x="300" y="80" width="600" height="50" fill="#64748b"/>
<rect x="380" y="150" width="6" height="510" fill="#475569"/><rect x="814" y="150" width="6" height="510" fill="#475569"/>
<rect x="380" y="180" width="440" height="5" fill="#475569"/><rect x="380" y="300" width="440" height="5" fill="#475569"/><rect x="380" y="420" width="440" height="5" fill="#475569"/><rect x="380" y="540" width="440" height="5" fill="#475569"/>
<g transform="translate(360,470) scale(1.1)">
      <ellipse cx="0" cy="120" rx="34" ry="8" fill="#000" opacity="0.12"/>
      <rect x="-16" y="58" width="13" height="58" rx="5" fill="#1e293b"/>
      <rect x="3" y="58" width="13" height="58" rx="5" fill="#1e293b"/>
      <rect x="-22" y="6" width="44" height="58" rx="10" fill="#f97316"/>
      <rect x="-22" y="28" width="44" height="9" fill="#e5e7eb" opacity="0.85"/>
      <rect x="-34" y="10" width="13" height="40" rx="6" fill="#f97316"/>
      <rect x="21" y="10" width="13" height="40" rx="6" fill="#f97316"/>
      <circle cx="0" cy="-12" r="16" fill="#f1c79b"/>
      <path d="M -19 -12 a 19 14 0 0 1 38 0 z" fill="#facc15"/>
      <rect x="-22" y="-13" width="44" height="6" rx="3" fill="#eab308"/></g><g transform="translate(840,360) scale(1.1)">
      <ellipse cx="0" cy="120" rx="34" ry="8" fill="#000" opacity="0.12"/>
      <rect x="-16" y="58" width="13" height="58" rx="5" fill="#1e293b"/>
      <rect x="3" y="58" width="13" height="58" rx="5" fill="#1e293b"/>
      <rect x="-22" y="6" width="44" height="58" rx="10" fill="#2563eb"/>
      <rect x="-22" y="28" width="44" height="9" fill="#e5e7eb" opacity="0.85"/>
      <rect x="-34" y="10" width="13" height="40" rx="6" fill="#2563eb"/>
      <rect x="21" y="10" width="13" height="40" rx="6" fill="#2563eb"/>
      <circle cx="0" cy="-12" r="16" fill="#f1c79b"/>
      <path d="M -19 -12 a 19 14 0 0 1 38 0 z" fill="#facc15"/>
      <rect x="-22" y="-13" width="44" height="6" rx="3" fill="#eab308"/></g>
<text x="600" y="745" font-family="sans-serif" font-size="42" fill="#334155" text-anchor="middle" font-weight="bold">鋼製橋脚 耐震補強</text></svg>