<svg xmlns="http://www.w3.org/2000/svg" viewBox="0 0 1200 800"><defs><linearGradient id="sky" x1="0" y1="0" x2="0" y2="1">
    <stop offset="0" stop-color="#1e293b"/><stop offset="1" stop-color="#475569"/></linearGradient>
    <linearGradient id="steel" x1="0" y1="0" x2="0" y2="1">
    <stop offset="0" stop-color="#94a3b8"/><stop offset="1" stop-color="#64748b"/></linearGradient></defs>
    <rect width="1200" height="800" fill="url(#sky)"/>
<rect x="0" y="640" width="1200" height="160" fill="#0f172a"/>
<rect x="500" y="100" width="200" height="560" fill="#334155" stroke="#1e293b" stroke-width="6"/><g transform="translate(420,440) scale(1.3)">
      <ellipse cx="0" cy="120" rx="34" ry="8" fill="#000" opacity="0.12"/>
      <rect x="-16" y="58" width="13" height="58" rx="5" fill="#1e293b"/>
      <rect x="3" y="58" width="13" height="58" rx="5" fill="#1e293b"/>
      <rect x="-22" y="6" width="44" height="58" rx="10" fill="#f97316"/>
      <rect x="-22" y="28" width="44" height="9" fill="#e5e7eb" opacity="0.85"/>
      <rect x="-34" y="10" width="13" height="40" rx="6" fill="#f97316"/>
      <rect x="21" y="10" width="13" height="40" rx="6" fill="#f97316"/>
      <circle cx="0" cy="-12" r="16" fill="#f1c79b"/>
      <path d="M -19 -12 a 19 14 0 0 1 38 0 z" fill="#facc15"/>
      <rect x="-22" y="-13" width="44" height="6" rx="3" fill="#eab308"/></g>
<line x1="455" y1="430" x2="520" y2="350" stroke="#1e293b" stroke-width="7"/>
<circle cx="525" cy="345" r="18" fill="#fde68a"/><circle cx="525" cy="345" r="40" fill="#facc15" opacity="0.3"/>
<line x1="525" y1="345" x2="481" y2="355" stroke="#fbbf24" stroke-width="4"/><line x1="525" y1="345" x2="495" y2="379" stroke="#fbbf24" stroke-width="4"/><line x1="525" y1="345" x2="525" y2="391" stroke="#fbbf24" stroke-width="4"/><line x1="525" y1="345" x2="559" y2="375" stroke="#fbbf24" stroke-width="4"/><line x1="525" y1="345" x2="571" y2="349" stroke="#fbbf24" stroke-width="4"/><line x1="525" y1="345" x2="475" y2="331" stroke="#fbbf24" stroke-width="4"/><line x1="525" y1="345" x2="565" y2="323" stroke="#fbbf24" stroke-width="4"/>
<text x="600" y="740" font-family="sans-serif" font-size="40" fill="#cbd5e1" text-anchor="middle" font-weight="bold">全姿勢溶接 施工</text></svg>